<svg width="44" height="33" viewBox="0 0 44 33" fill="none" xmlns="http://www.w3.org/2000/svg">
<g filter="url(#filter0_d_43_1406)">
<path d="M28.5455 10.7143C31.2618 10.7143 33.4382 8.32143 33.4382 5.35714C33.4382 2.39286 31.2618 0 28.5455 0C25.8291 0 23.6364 2.39286 23.6364 5.35714C23.6364 8.32143 25.8291 10.7143 28.5455 10.7143ZM15.4545 10.7143C18.1709 10.7143 20.3473 8.32143 20.3473 5.35714C20.3473 2.39286 18.1709 0 15.4545 0C12.7382 0 10.5455 2.39286 10.5455 5.35714C10.5455 8.32143 12.7382 10.7143 15.4545 10.7143ZM15.4545 14.2857C11.6418 14.2857 4 16.375 4 20.5357V25H26.9091V20.5357C26.9091 16.375 19.2673 14.2857 15.4545 14.2857ZM28.5455 14.2857C28.0709 14.2857 27.5309 14.3214 26.9582 14.375C28.8564 15.875 30.1818 17.8929 30.1818 20.5357V25H40V20.5357C40 16.375 32.3582 14.2857 28.5455 14.2857Z" fill="#4D4D4D"/>
</g>
<defs>
<filter id="filter0_d_43_1406" x="0" y="0" width="44" height="33" filterUnits="userSpaceOnUse" color-interpolation-filters="sRGB">
<feFlood flood-opacity="0" result="BackgroundImageFix"/>
<feColorMatrix in="SourceAlpha" type="matrix" values="0 0 0 0 0 0 0 0 0 0 0 0 0 0 0 0 0 0 127 0" result="hardAlpha"/>
<feOffset dy="4"/>
<feGaussianBlur stdDeviation="2"/>
<feComposite in2="hardAlpha" operator="out"/>
<feColorMatrix type="matrix" values="0 0 0 0 0 0 0 0 0 0 0 0 0 0 0 0 0 0 0.25 0"/>
<feBlend mode="normal" in2="BackgroundImageFix" result="effect1_dropShadow_43_1406"/>
<feBlend mode="normal" in="SourceGraphic" in2="effect1_dropShadow_43_1406" result="shape"/>
</filter>
</defs>
</svg>
