<svg width="27" height="21" viewBox="0 0 27 21" fill="none" xmlns="http://www.w3.org/2000/svg">
<path d="M18.4091 9C20.4464 9 22.0786 6.99 22.0786 4.5C22.0786 2.01 20.4464 0 18.4091 0C16.3718 0 14.7273 2.01 14.7273 4.5C14.7273 6.99 16.3718 9 18.4091 9ZM8.59091 9C10.6282 9 12.2605 6.99 12.2605 4.5C12.2605 2.01 10.6282 0 8.59091 0C6.55364 0 4.90909 2.01 4.90909 4.5C4.90909 6.99 6.55364 9 8.59091 9ZM8.59091 12C5.73136 12 0 13.755 0 17.25V21H17.1818V17.25C17.1818 13.755 11.4505 12 8.59091 12ZM18.4091 12C18.0532 12 17.6482 12.03 17.2186 12.075C18.6423 13.335 19.6364 15.03 19.6364 17.25V21H27V17.25C27 13.755 21.2686 12 18.4091 12Z" fill="black"/>
</svg>
