<svg width="30" height="25" viewBox="0 0 30 25" fill="none" xmlns="http://www.w3.org/2000/svg">
<path d="M20 12.5C20 10.9722 18.7143 9.72222 17.1429 9.72222C15.5714 9.72222 14.2857 10.9722 14.2857 12.5C14.2857 14.0278 15.5714 15.2778 17.1429 15.2778C18.7143 15.2778 20 14.0278 20 12.5ZM17.1429 0C10.0429 0 4.28571 5.59722 4.28571 12.5H0L5.71429 18.0556L11.4286 12.5H7.14286C7.14286 7.125 11.6143 2.77778 17.1429 2.77778C22.6714 2.77778 27.1429 7.125 27.1429 12.5C27.1429 17.875 22.6714 22.2222 17.1429 22.2222C14.9857 22.2222 12.9857 21.5417 11.3429 20.4167L9.31429 22.4167C11.4857 24.0278 14.2 25 17.1429 25C24.2429 25 30 19.4028 30 12.5C30 5.59722 24.2429 0 17.1429 0Z" fill="black"/>
</svg>
